<?xml version="1.0" encoding="UTF-8" standalone="yes"?>
<svg xmlns="http://www.w3.org/2000/svg" viewBox="0 0 50 50" width="16" height="16" fill="#C5C5C5">
  <path d="M 17 0 C 15.347656 0 14 1.347656 14 3 C 14 4.300781 14.84375 5.394531 16 5.8125 L 16 12 C 16 12.601563 16.398438 13 17 13 C 17.601563 13 18 12.601563 18 12 L 18 6 L 19 6 L 19 12 C 19 12.601563 19.398438 13 20 13 C 20.601563 13 21 12.601563 21 12 L 21 6 L 22 6 L 22 12 C 22 12.601563 22.398438 13 23 13 C 23.601563 13 24 12.601563 24 12 L 24 6 L 25 6 L 25 12 C 25 12.601563 25.398438 13 26 13 C 26.601563 13 27 12.601563 27 12 L 27 6 L 28 6 L 28 12 C 28 12.601563 28.398438 13 29 13 C 29.601563 13 30 12.601563 30 12 L 30 6 L 31 6 L 31 12 C 31 12.601563 31.398438 13 32 13 C 32.601563 13 33 12.601563 33 12 L 33 6 L 34 6 C 34.855469 6 35.679688 5.613281 36.21875 5 L 42.5 5 C 43.855469 5 45 3.855469 45 2.5 C 45 1.144531 43.855469 0 42.5 0 Z M 3 8 C 0.929688 8 0 11.515625 0 15 C 0 18.484375 0.929688 22 3 22 L 47 22 C 49.070313 22 50 18.484375 50 15 C 50 11.515625 49.070313 8 47 8 L 35 8 L 35 12 C 35 13.710938 33.710938 15 32 15 C 31.722656 15 31.46875 14.972656 31.21875 14.90625 C 30.96875 14.839844 30.71875 14.714844 30.5 14.59375 C 30.0625 14.835938 29.558594 15 29 15 C 28.722656 15 28.46875 14.972656 28.21875 14.90625 C 27.96875 14.839844 27.71875 14.714844 27.5 14.59375 C 27.0625 14.835938 26.558594 15 26 15 C 25.722656 15 25.46875 14.972656 25.21875 14.90625 C 24.96875 14.839844 24.71875 14.714844 24.5 14.59375 C 24.0625 14.835938 23.558594 15 23 15 C 22.722656 15 22.46875 14.972656 22.21875 14.90625 C 21.96875 14.839844 21.71875 14.714844 21.5 14.59375 C 21.0625 14.835938 20.558594 15 20 15 C 19.722656 15 19.46875 14.972656 19.21875 14.90625 C 18.96875 14.839844 18.71875 14.714844 18.5 14.59375 C 18.0625 14.835938 17.558594 15 17 15 C 16.785156 15 16.574219 14.976563 16.375 14.9375 C 15.578125 14.78125 14.921875 14.324219 14.5 13.6875 C 14.394531 13.527344 14.292969 13.367188 14.21875 13.1875 C 14.070313 12.824219 14 12.425781 14 12 L 14 8 Z M 4 24 L 4 40 L 46 40 L 46 24 L 40 24 L 40 33 C 40 33.554688 39.554688 34 39 34 L 11 34 C 10.449219 34 10 33.554688 10 33 L 10 24 Z M 12 24 L 12 32 L 38 32 L 38 24 L 30.40625 24 L 25.71875 28.71875 C 25.523438 28.914063 25.257813 29 25 29 C 24.742188 29 24.476563 28.914063 24.28125 28.71875 L 19.59375 24 Z M 22.40625 24 L 25 26.59375 L 27.59375 24 Z M 4 41 L 4 43 C 4 43.601563 4.398438 44 5 44 C 5.601563 44 6 43.601563 6 43 L 6 41 Z M 8 41 L 8 43 C 8 43.601563 8.398438 44 9 44 C 9.601563 44 10 43.601563 10 43 L 10 41 Z M 12 41 L 12 43 C 12 43.601563 12.398438 44 13 44 C 13.601563 44 14 43.601563 14 43 L 14 41 Z M 16 41 L 16 43 C 16 43.601563 16.398438 44 17 44 C 17.601563 44 18 43.601563 18 43 L 18 41 Z M 20 41 L 20 43 C 20 43.601563 20.398438 44 21 44 C 21.601563 44 22 43.601563 22 43 L 22 41 Z M 24 41 L 24 43 C 24 43.601563 24.398438 44 25 44 C 25.601563 44 26 43.601563 26 43 L 26 41 Z M 28 41 L 28 43 C 28 43.601563 28.398438 44 29 44 C 29.601563 44 30 43.601563 30 43 L 30 41 Z M 32 41 L 32 43 C 32 43.601563 32.398438 44 33 44 C 33.601563 44 34 43.601563 34 43 L 34 41 Z M 36 41 L 36 43 C 36 43.601563 36.398438 44 37 44 C 37.601563 44 38 43.601563 38 43 L 38 41 Z M 40 41 L 40 43 C 40 43.601563 40.398438 44 41 44 C 41.601563 44 42 43.601563 42 43 L 42 41 Z M 44 41 L 44 43 C 44 43.601563 44.398438 44 45 44 C 45.601563 44 46 43.601563 46 43 L 46 41 Z"/>
</svg>