<?xml version="1.0" encoding="UTF-8" standalone="yes"?>
<svg xmlns="http://www.w3.org/2000/svg" viewBox="0 0 50 50" width="28" height="28" fill="#000000">
  <path d="M 3 8 C 2.316406 8 1.785156 8.402344 1.4375 8.84375 C 1.089844 9.285156 0.832031 9.820313 0.625 10.4375 C 0.214844 11.667969 0 13.257813 0 15 C 0 16.742188 0.214844 18.332031 0.625 19.5625 C 0.832031 20.179688 1.089844 20.714844 1.4375 21.15625 C 1.785156 21.597656 2.316406 22 3 22 L 4 22 L 4 40 L 46 40 L 46 22 L 47 22 C 47.683594 22 48.214844 21.597656 48.5625 21.15625 C 48.910156 20.714844 49.167969 20.179688 49.375 19.5625 C 49.785156 18.332031 50 16.742188 50 15 C 50 13.257813 49.785156 11.667969 49.375 10.4375 C 49.167969 9.820313 48.910156 9.285156 48.5625 8.84375 C 48.214844 8.402344 47.683594 8 47 8 Z M 3.09375 10 L 46.90625 10 C 46.90625 10.003906 46.933594 10.011719 47 10.09375 C 47.128906 10.261719 47.3125 10.621094 47.46875 11.09375 C 47.785156 12.039063 48 13.441406 48 15 C 48 16.558594 47.785156 17.960938 47.46875 18.90625 C 47.3125 19.378906 47.128906 19.738281 47 19.90625 C 46.933594 19.988281 46.90625 19.996094 46.90625 20 L 18.1875 20 C 18.0625 19.976563 17.9375 19.976563 17.8125 20 L 11.1875 20 C 11.054688 19.972656 10.914063 19.972656 10.78125 20 L 5.1875 20 C 5.054688 19.972656 4.914063 19.972656 4.78125 20 L 3.09375 20 C 3.09375 19.996094 3.066406 19.988281 3 19.90625 C 2.871094 19.738281 2.6875 19.378906 2.53125 18.90625 C 2.214844 17.960938 2 16.558594 2 15 C 2 13.441406 2.214844 12.039063 2.53125 11.09375 C 2.6875 10.621094 2.871094 10.261719 3 10.09375 C 3.066406 10.011719 3.09375 10.003906 3.09375 10 Z M 6 22 L 10 22 L 10 33 C 10 33.550781 10.449219 34 11 34 L 39 34 C 39.550781 34 40 33.550781 40 33 L 40 22 L 44 22 L 44 38 L 6 38 Z M 12 22 L 17.5625 22 L 24.28125 28.71875 C 24.46875 28.914063 24.730469 29.023438 25 29.023438 C 25.269531 29.023438 25.53125 28.914063 25.71875 28.71875 L 32.4375 22 L 38 22 L 38 32 L 12 32 Z M 20.4375 22 L 29.5625 22 L 25 26.5625 Z M 4 41 L 4 43 C 4 43.601563 4.398438 44 5 44 C 5.601563 44 6 43.601563 6 43 L 6 41 Z M 8 41 L 8 43 C 8 43.601563 8.398438 44 9 44 C 9.601563 44 10 43.601563 10 43 L 10 41 Z M 12 41 L 12 43 C 12 43.601563 12.398438 44 13 44 C 13.601563 44 14 43.601563 14 43 L 14 41 Z M 16 41 L 16 43 C 16 43.601563 16.398438 44 17 44 C 17.601563 44 18 43.601563 18 43 L 18 41 Z M 20 41 L 20 43 C 20 43.601563 20.398438 44 21 44 C 21.601563 44 22 43.601563 22 43 L 22 41 Z M 24 41 L 24 43 C 24 43.601563 24.398438 44 25 44 C 25.601563 44 26 43.601563 26 43 L 26 41 Z M 28 41 L 28 43 C 28 43.601563 28.398438 44 29 44 C 29.601563 44 30 43.601563 30 43 L 30 41 Z M 32 41 L 32 43 C 32 43.601563 32.398438 44 33 44 C 33.601563 44 34 43.601563 34 43 L 34 41 Z M 36 41 L 36 43 C 36 43.601563 36.398438 44 37 44 C 37.601563 44 38 43.601563 38 43 L 38 41 Z M 40 41 L 40 43 C 40 43.601563 40.398438 44 41 44 C 41.601563 44 42 43.601563 42 43 L 42 41 Z M 44 41 L 44 43 C 44 43.601563 44.398438 44 45 44 C 45.601563 44 46 43.601563 46 43 L 46 41 Z"/>
</svg>