<?xml version="1.0" encoding="UTF-8" standalone="yes"?>
<svg xmlns="http://www.w3.org/2000/svg" viewBox="0 0 50 50" width="28" height="28" fill="#C5C5C5">
  <path d="M 3 8 C 0.929688 8 0 11.515625 0 15 C 0 18.484375 0.929688 22 3 22 L 47 22 C 49.070313 22 50 18.484375 50 15 C 50 11.515625 49.070313 8 47 8 Z M 4 24 L 4 40 L 46 40 L 46 24 L 40 24 L 40 33 C 40 33.554688 39.554688 34 39 34 L 11 34 C 10.449219 34 10 33.554688 10 33 L 10 24 Z M 12 24 L 12 32 L 38 32 L 38 24 L 30.40625 24 L 25.71875 28.71875 C 25.523438 28.914063 25.257813 29 25 29 C 24.742188 29 24.476563 28.914063 24.28125 28.71875 L 19.59375 24 Z M 22.40625 24 L 25 26.59375 L 27.59375 24 Z M 4 41 L 4 43 C 4 43.601563 4.398438 44 5 44 C 5.601563 44 6 43.601563 6 43 L 6 41 Z M 8 41 L 8 43 C 8 43.601563 8.398438 44 9 44 C 9.601563 44 10 43.601563 10 43 L 10 41 Z M 12 41 L 12 43 C 12 43.601563 12.398438 44 13 44 C 13.601563 44 14 43.601563 14 43 L 14 41 Z M 16 41 L 16 43 C 16 43.601563 16.398438 44 17 44 C 17.601563 44 18 43.601563 18 43 L 18 41 Z M 20 41 L 20 43 C 20 43.601563 20.398438 44 21 44 C 21.601563 44 22 43.601563 22 43 L 22 41 Z M 24 41 L 24 43 C 24 43.601563 24.398438 44 25 44 C 25.601563 44 26 43.601563 26 43 L 26 41 Z M 28 41 L 28 43 C 28 43.601563 28.398438 44 29 44 C 29.601563 44 30 43.601563 30 43 L 30 41 Z M 32 41 L 32 43 C 32 43.601563 32.398438 44 33 44 C 33.601563 44 34 43.601563 34 43 L 34 41 Z M 36 41 L 36 43 C 36 43.601563 36.398438 44 37 44 C 37.601563 44 38 43.601563 38 43 L 38 41 Z M 40 41 L 40 43 C 40 43.601563 40.398438 44 41 44 C 41.601563 44 42 43.601563 42 43 L 42 41 Z M 44 41 L 44 43 C 44 43.601563 44.398438 44 45 44 C 45.601563 44 46 43.601563 46 43 L 46 41 Z"/>
</svg>